<?xml version="1.0" standalone="no"?>
<!DOCTYPE svg PUBLIC "-//W3C//DTD SVG 20010904//EN"
 "http://www.w3.org/TR/2001/REC-SVG-20010904/DTD/svg10.dtd">
<svg version="1.0" xmlns="http://www.w3.org/2000/svg"
 width="1536.000000pt" height="1017.000000pt" viewBox="0 0 1536.000000 1017.000000"
 preserveAspectRatio="xMidYMid meet">
<metadata>
Created by potrace 1.16, written by Peter Selinger 2001-2019
</metadata>
<g transform="translate(0.000000,1017.000000) scale(0.100000,-0.100000)"
fill="#000000" stroke="none">
<path d="M13780 10126 c-19 -25 -45 -49 -57 -55 -34 -16 -55 -54 -47 -86 9
-36 22 -39 84 -19 53 17 53 17 71 -5 13 -16 16 -31 12 -54 -10 -49 -47 -124
-77 -153 -32 -33 -32 -39 -3 -59 58 -38 113 -247 85 -322 -9 -23 -7 -37 13
-78 23 -49 26 -84 28 -281 0 -33 6 -55 16 -64 8 -7 15 -18 15 -24 0 -7 11 -23
25 -36 23 -22 28 -22 67 -11 87 26 106 38 113 73 4 18 12 42 18 53 7 11 12 36
13 55 0 20 15 58 33 89 18 30 31 66 31 80 -4 48 0 58 35 104 19 25 35 57 35
71 0 13 6 31 13 38 28 29 40 68 34 109 -3 23 -1 52 3 65 8 20 14 23 41 17 46
-9 54 13 20 56 -16 20 -35 50 -44 66 -9 17 -43 59 -77 93 -58 59 -65 64 -99
60 -20 -3 -44 -8 -53 -12 -14 -6 -18 -3 -18 13 0 22 -24 29 -35 11 -11 -18
-28 -9 -97 57 -26 24 -23 78 7 117 14 18 25 43 25 54 0 21 -4 22 -98 22 l-97
0 -35 -44z"/>
<path d="M14270 10125 c-14 -50 -24 -56 -41 -23 -11 21 -12 21 -30 -13 -21
-40 -24 -59 -8 -59 19 0 49 -42 49 -68 0 -24 1 -24 18 -9 24 22 32 21 32 -2 0
-11 17 -38 38 -61 31 -35 45 -43 77 -44 35 -1 40 2 59 39 29 55 52 80 61 65 4
-6 5 -14 2 -16 -3 -3 22 -32 56 -65 79 -76 102 -77 101 -4 0 28 -6 86 -14 130
-12 75 -16 83 -61 128 l-48 47 -139 0 -139 0 -13 -45z"/>
<path d="M13060 9955 c0 -8 -16 -29 -35 -48 -30 -30 -34 -38 -32 -79 2 -26 9
-53 16 -61 9 -12 10 -25 3 -51 -6 -19 -8 -37 -5 -40 3 -3 1 -11 -4 -18 -21
-27 -35 -109 -26 -160 4 -26 25 -39 86 -52 25 -6 27 -10 27 -56 0 -59 -20 -78
-74 -72 -30 3 -36 8 -36 27 0 30 -35 39 -67 18 -17 -11 -21 -19 -14 -26 6 -6
11 -28 11 -50 0 -35 2 -38 21 -32 25 8 39 -8 32 -36 -4 -13 -14 -19 -34 -19
-28 0 -38 -10 -43 -44 -1 -8 -6 -19 -10 -23 -4 -4 -6 23 -3 60 l4 68 -26 -3
c-25 -3 -26 -6 -29 -68 -2 -48 -8 -69 -23 -83 -30 -28 -22 -122 12 -132 11 -4
19 -11 19 -17 0 -5 -6 -8 -14 -5 -21 8 -36 -13 -36 -50 0 -51 68 -173 96 -173
7 0 14 -5 16 -11 4 -11 68 -38 98 -42 9 -1 27 -13 40 -25 38 -37 64 -43 138
-33 37 5 82 7 101 6 47 -4 91 13 91 36 0 10 -4 19 -8 19 -13 0 -42 57 -42 84
0 24 3 26 28 20 53 -11 54 -12 50 -54 -4 -43 5 -49 36 -25 26 20 29 102 5 126
-10 10 -23 35 -28 57 -7 24 -20 44 -35 51 -30 16 -43 43 -51 103 -3 26 -13 54
-21 62 -8 8 -14 32 -14 54 0 35 3 40 28 45 21 4 32 0 49 -21 13 -15 25 -38 29
-52 3 -14 12 -42 21 -62 9 -21 21 -61 28 -90 10 -49 14 -53 42 -56 28 -3 32 0
38 28 8 37 -2 213 -14 258 -11 36 -39 85 -71 121 -11 13 -20 28 -20 32 0 5
-18 18 -40 29 -86 44 -98 83 -59 190 l21 58 -36 56 -36 56 18 32 c10 18 21 47
25 63 3 17 8 37 12 46 11 28 -94 59 -115 34 -15 -18 -46 -20 -57 -2 -10 15
-58 47 -73 47 -5 0 -10 -7 -10 -15z m186 -543 c35 -23 44 -94 18 -143 -13 -26
-19 -30 -42 -24 -41 10 -44 19 -44 109 0 49 11 66 42 66 8 0 20 -4 26 -8z
m-144 -469 c20 -18 24 -63 8 -79 -16 -16 -4 -36 35 -63 30 -20 35 -29 35 -62
0 -21 -5 -41 -12 -45 -27 -17 -57 -11 -84 17 -27 28 -28 31 -16 75 12 44 11
47 -18 82 -16 20 -30 44 -30 52 0 39 49 53 82 23z"/>
<path d="M15153 9676 c-59 -20 -123 -88 -123 -129 0 -7 11 -13 25 -13 14 -1
25 2 25 6 0 4 21 17 46 29 72 34 141 106 107 112 -33 6 -52 4 -80 -5z"/>
<path d="M15066 8211 c-4 -6 -17 -11 -29 -11 -12 0 -31 -11 -43 -26 -13 -15
-25 -21 -29 -15 -3 6 -14 11 -23 10 -14 0 -13 -2 3 -9 18 -8 17 -9 -7 -9 -16
-1 -28 4 -28 9 0 6 -7 10 -15 10 -8 0 -15 -4 -15 -10 0 -5 -9 -1 -20 10 -11
11 -33 20 -49 20 -17 0 -33 5 -36 10 -3 6 -15 10 -25 10 -17 0 -18 -3 -9 -22
7 -14 40 -36 87 -58 68 -31 85 -35 161 -35 48 0 101 4 119 8 31 8 32 7 32 -21
0 -38 10 -45 105 -72 44 -13 88 -27 98 -32 15 -8 17 -2 17 52 0 44 -3 59 -12
54 -8 -5 -9 0 -3 17 4 13 10 43 12 67 l5 42 -43 0 c-24 -1 -69 -11 -99 -24
l-54 -24 -15 21 c-8 12 -15 23 -16 24 -6 10 -64 13 -69 4z"/>
<path d="M13030 8155 c-5 -14 -10 -33 -10 -42 0 -8 -9 -28 -21 -44 -27 -39
-80 -41 -97 -4 -6 14 -17 25 -23 25 -6 0 -8 11 -5 28 3 15 2 33 -3 41 -13 20
-60 -47 -77 -111 -29 -111 -8 -278 42 -325 38 -35 62 -32 141 15 38 22 119 65
181 96 127 64 142 82 142 173 0 74 -36 111 -121 127 -21 4 -50 13 -65 20 -61
29 -73 29 -84 1z"/>
<path d="M4153 8128 c-20 -25 -33 -83 -34 -153 -2 -148 -2 -147 24 -171 23
-21 24 -27 16 -65 -7 -28 -6 -46 1 -53 12 -12 14 -39 1 -32 -12 7 -41 -55 -41
-87 0 -13 9 -36 21 -51 26 -33 49 -28 102 22 24 24 48 37 67 38 16 1 28 -1 26
-5 -2 -3 11 -7 30 -9 19 -1 45 -8 57 -16 12 -7 45 -16 72 -20 31 -4 45 -2 36
3 -11 7 -10 12 8 22 29 19 26 35 -8 42 -23 5 -29 11 -26 27 2 12 -4 25 -17 34
-11 8 -17 19 -13 25 3 6 -1 11 -9 11 -20 0 -21 19 -1 26 9 4 15 19 15 39 0 31
-2 33 -49 39 -29 4 -51 12 -55 21 -3 8 -17 15 -31 15 -14 0 -25 5 -25 10 0 6
-17 10 -38 10 -34 0 -39 4 -50 33 -7 19 -11 69 -10 113 2 53 -3 89 -12 109
-17 33 -41 43 -57 23z"/>
<path d="M6990 7730 l-35 -7 43 -2 c23 0 42 -5 42 -10 0 -7 -33 -14 -130 -26
-41 -5 -80 -17 -75 -24 5 -9 -38 -31 -59 -31 -8 0 -19 -7 -26 -15 -7 -9 -20
-13 -29 -10 -8 3 -12 3 -8 -1 4 -4 -7 -16 -24 -26 -17 -11 -34 -17 -37 -14 -3
4 0 6 6 6 7 0 12 4 12 9 0 19 -40 -2 -85 -45 -72 -66 -76 -53 -6 17 33 34 61
63 61 65 0 6 -83 -34 -102 -50 -10 -9 -20 -16 -23 -16 -14 0 -116 -81 -161
-127 -28 -29 -55 -53 -59 -53 -12 0 -32 -29 -64 -90 -16 -30 -38 -64 -50 -74
-12 -11 -21 -23 -21 -27 0 -5 -20 -41 -45 -81 -24 -39 -54 -103 -65 -142 -12
-39 -26 -84 -31 -100 -5 -16 -12 -61 -15 -100 -3 -39 -17 -100 -30 -135 -24
-62 -41 -201 -24 -201 4 0 8 -10 8 -22 0 -13 3 -61 7 -108 6 -71 5 -91 -9
-118 -24 -47 -12 -160 18 -171 67 -26 61 -36 75 126 11 127 10 169 -3 293 -19
178 -21 247 -7 283 14 35 14 50 1 42 -13 -8 -12 -5 1 34 6 17 15 31 19 31 4 0
11 16 14 35 4 19 11 35 16 35 5 0 12 20 16 45 3 25 11 45 16 45 5 0 7 -13 3
-29 -4 -21 -2 -30 9 -34 11 -5 22 5 36 33 11 22 25 39 31 37 13 -2 24 15 38
63 8 29 9 21 6 -49 -2 -45 -6 -86 -9 -89 -3 -3 -1 -11 5 -18 11 -13 -1 -32
-48 -78 -20 -20 -73 -124 -73 -144 0 -6 7 -13 16 -16 11 -4 14 -13 10 -31 -4
-14 -2 -25 4 -25 5 0 10 5 10 10 0 6 6 10 14 10 21 0 105 80 156 148 25 33 56
67 70 76 14 8 39 28 55 44 43 41 75 57 75 38 0 -8 -6 -17 -12 -19 -10 -4 -10
-8 1 -15 10 -7 18 -6 27 1 6 7 38 30 70 52 31 22 74 55 94 73 21 17 41 32 44
32 4 0 22 11 40 25 38 29 51 32 42 10 -7 -20 3 -19 23 3 9 9 38 32 65 50 l48
33 -4 -30 c-2 -17 0 -32 6 -34 7 -2 6 -10 -3 -21 -12 -14 -12 -19 -2 -26 9 -5
11 -18 6 -38 -4 -18 -2 -33 5 -37 15 -9 38 24 33 46 -5 19 30 44 47 34 6 -3
10 1 10 9 0 9 5 16 10 16 6 0 10 -8 10 -17 0 -15 2 -16 10 -3 8 12 10 12 16
-3 8 -21 24 -22 24 -2 0 18 19 20 22 3 1 -14 5 -46 10 -88 3 -29 27 -60 45
-60 8 0 13 12 13 30 0 17 4 30 9 30 11 0 24 31 16 39 -3 3 -10 -1 -15 -9 -8
-12 -10 -9 -11 13 -4 78 0 104 17 122 13 13 19 14 25 4 5 -9 10 -3 15 17 10
43 15 47 28 28 9 -12 15 -14 20 -5 4 6 12 9 17 6 5 -4 9 4 9 17 l0 22 22 -22
c20 -19 23 -33 23 -106 0 -53 5 -89 13 -98 7 -9 12 -20 11 -24 -2 -9 14 -54
31 -89 8 -15 9 0 6 55 -2 45 0 65 4 50 4 -14 8 -42 9 -62 1 -21 4 -38 9 -38 4
0 7 -18 8 -41 0 -47 39 -125 66 -132 11 -3 18 -14 18 -29 0 -18 -2 -20 -10 -8
-14 23 -21 7 -10 -29 5 -18 6 -39 3 -47 -3 -8 1 -14 11 -14 17 0 55 -71 61
-112 1 -13 8 -36 14 -51 6 -16 11 -40 11 -53 0 -14 4 -22 10 -19 6 3 10 1 10
-5 0 -6 18 -49 40 -96 22 -47 40 -93 40 -103 0 -10 9 -28 20 -41 11 -13 20
-28 20 -33 0 -6 10 -21 22 -34 21 -23 22 -32 21 -183 -1 -97 3 -160 9 -160 5
0 7 -4 4 -9 -9 -13 4 -41 18 -41 13 0 107 103 146 160 12 19 28 40 34 45 6 6
29 48 51 94 24 51 51 91 69 104 33 24 124 35 152 19 17 -10 24 3 73 146 30 87
56 181 58 212 2 30 7 62 10 70 10 26 11 70 2 64 -5 -3 -9 -1 -9 5 0 5 4 11 9
13 23 8 12 210 -15 275 -8 18 -14 44 -14 59 0 17 -15 44 -40 73 -120 137 -121
138 -114 167 6 23 -30 66 -81 98 -16 11 -37 28 -45 39 -32 43 -60 62 -109 73
-29 6 -52 7 -53 2 -2 -5 -11 -6 -21 -3 -9 4 -14 11 -11 17 10 16 -35 56 -120
105 -45 26 -85 53 -89 60 -4 7 -14 13 -22 13 -8 0 -43 22 -79 50 -63 48 -89
57 -169 59 -16 1 -26 5 -22 11 3 6 1 10 -4 10 -6 0 -11 -4 -11 -9 0 -5 -23 -3
-50 4 -58 15 -57 15 -71 15 -5 0 -8 3 -6 8 7 10 -85 13 -98 2 -6 -5 -26 -5
-45 0 -32 7 -32 8 -7 9 15 1 27 6 27 11 0 11 -156 11 -210 0z"/>
<path d="M6150 7703 c-8 -3 -24 -14 -35 -23 -11 -10 -37 -29 -58 -43 l-38 -26
36 -17 c50 -23 81 -68 95 -136 10 -51 14 -58 36 -58 13 0 24 4 24 9 0 5 14 14
30 21 17 7 33 17 37 23 3 6 1 7 -5 3 -7 -4 -12 -3 -12 2 0 11 30 37 53 45 9 4
20 15 24 24 3 10 12 25 19 34 12 13 11 19 -6 37 -12 13 -27 19 -38 16 -13 -5
-14 -4 -3 4 20 14 -30 59 -75 68 -19 3 -34 10 -34 15 0 10 -26 11 -50 2z"/>
<path d="M2905 7503 c15 -16 40 -57 56 -93 24 -53 29 -76 27 -127 -3 -74 9
-93 46 -74 43 23 95 -8 131 -78 24 -48 36 -58 62 -53 13 2 23 0 23 -5 0 -16
79 -46 98 -37 14 6 12 9 -10 12 -27 3 -28 4 -13 33 20 38 28 37 42 -8 13 -43
10 -53 -18 -53 -24 0 -24 -13 -2 -51 26 -43 85 -56 122 -28 13 11 30 19 37 19
8 0 14 4 14 10 0 5 20 7 48 4 53 -7 102 8 102 30 0 8 -16 23 -37 32 -39 19
-123 96 -123 113 0 14 -59 57 -73 53 -5 -2 -13 2 -17 8 -4 7 -14 -3 -24 -24
-17 -36 -35 -48 -37 -23 0 6 -4 2 -9 -10 -12 -30 -25 -29 -47 2 -10 14 -26 35
-35 46 -9 11 -20 34 -23 50 -4 17 -14 33 -23 37 -10 3 -49 37 -88 76 -74 74
-135 122 -193 150 -52 25 -66 20 -36 -11z"/>
<path d="M2479 7465 c-11 -19 -30 -37 -42 -41 -33 -10 -87 -71 -94 -106 -3
-18 -14 -33 -24 -35 -13 -4 -25 -26 -39 -72 -12 -36 -37 -90 -56 -119 -29 -44
-34 -59 -28 -85 9 -45 21 -65 42 -71 10 -4 28 -25 40 -49 34 -66 46 -77 83
-77 21 0 42 -9 58 -24 15 -13 40 -27 57 -30 26 -6 36 -2 62 23 17 17 35 31 41
31 6 0 11 5 11 10 0 6 -7 10 -15 10 -8 0 -15 5 -15 12 0 18 -48 58 -96 79 -64
29 -114 83 -114 125 0 35 38 84 65 84 17 0 64 53 67 75 1 11 -1 48 -6 82 -11
87 4 128 55 151 37 17 38 19 23 40 -22 32 -51 28 -75 -13z"/>
<path d="M2720 7188 c-11 -12 -20 -28 -20 -37 0 -8 -5 -30 -12 -48 -11 -30
-10 -39 11 -79 13 -24 30 -44 38 -44 21 0 131 69 137 87 3 8 2 23 -4 32 -5 10
-7 21 -4 23 8 8 -92 88 -109 88 -9 0 -25 -10 -37 -22z"/>
<path d="M10413 6703 c-18 -6 -16 -34 8 -99 28 -75 46 -94 87 -94 68 0 108 62
67 104 -8 8 -15 25 -15 38 0 37 -32 57 -87 56 -26 -1 -54 -3 -60 -5z"/>
<path d="M9400 6461 c-83 -9 -120 -27 -120 -58 0 -12 -5 -23 -11 -23 -13 0 -7
-48 9 -78 l13 -23 29 21 c31 22 42 24 68 11 9 -5 49 -14 88 -20 40 -6 79 -14
88 -17 13 -5 15 1 13 36 -2 22 -8 44 -14 48 -6 4 -11 29 -10 57 l2 50 -45 1
c-25 1 -74 -2 -110 -5z"/>
<path d="M7100 6203 c-45 -7 -84 -31 -129 -76 -38 -39 -43 -51 -43 -87 1 -23
3 -45 7 -48 11 -11 35 -10 35 2 0 26 72 96 111 107 21 7 41 10 44 7 3 -3 -2
-22 -10 -42 -13 -30 -14 -44 -5 -72 12 -34 12 -35 71 -33 32 1 56 5 54 9 -3 5
7 11 23 15 15 4 33 12 40 18 8 6 32 10 53 8 33 -2 39 1 39 16 0 34 -33 55
-158 104 -59 23 -147 5 -220 -46 -60 -41 -64 -23 -7 35 42 43 105 69 169 71
35 1 38 2 16 9 -27 9 -51 10 -90 3z"/>
<path d="M6420 6154 c71 -47 81 -55 75 -64 -3 -4 -22 1 -44 12 -47 23 -140 27
-196 7 -22 -8 -42 -16 -45 -19 -3 -3 -14 -10 -24 -16 -11 -5 -21 -20 -22 -32
-3 -17 6 -27 39 -44 71 -37 109 -48 178 -48 92 0 131 9 137 32 3 11 10 17 18
14 15 -6 16 -5 20 42 3 42 -43 90 -120 127 -74 35 -80 31 -16 -11z"/>
<path d="M3360 6021 c0 -5 -12 -11 -27 -13 -30 -3 -28 7 -64 -223 -6 -38 -19
-118 -30 -176 -10 -58 -19 -111 -19 -117 0 -7 15 -12 34 -12 18 0 50 -7 69
-15 58 -24 102 -20 122 12 14 21 16 39 11 97 -3 39 -10 140 -16 225 -13 193
-22 231 -55 231 -14 0 -25 -4 -25 -9z"/>
<path d="M8244 5997 c11 -7 37 -28 59 -46 33 -30 38 -40 35 -67 -2 -18 0 -30
5 -27 5 3 5 -3 -1 -13 -5 -11 -13 -41 -16 -69 -10 -68 -53 -197 -79 -237 -13
-18 -36 -39 -52 -48 -83 -41 -96 -57 -34 -40 46 13 99 70 144 155 20 39 41 75
45 80 24 29 31 158 14 242 -5 25 -88 83 -118 82 -20 0 -20 -1 -2 -12z"/>
<path d="M6629 5375 c-3 -2 -34 -7 -70 -10 -35 -2 -73 -6 -84 -7 -11 -1 -43
-16 -71 -35 -28 -18 -56 -33 -63 -33 -19 0 -2 -20 26 -31 17 -6 34 -31 58 -82
18 -40 43 -84 54 -99 21 -26 73 -58 94 -58 10 0 -1 10 -57 55 -14 11 -25 29
-26 40 0 17 6 20 40 19 37 -2 40 0 40 25 0 20 -2 23 -10 11 -6 -9 -10 -10 -10
-3 0 6 7 18 15 27 22 22 20 49 -4 41 -13 -4 -24 1 -35 17 -22 32 -20 41 9 34
16 -4 25 -2 25 5 0 14 138 5 152 -9 6 -6 28 -4 56 5 26 7 58 11 70 8 13 -3 30
0 38 6 11 9 20 9 39 -1 20 -11 23 -18 18 -39 -9 -40 -13 -44 -49 -38 -19 3
-34 2 -34 -4 0 -5 11 -9 25 -9 20 0 25 -5 25 -24 0 -31 9 -56 21 -56 5 0 4 12
-2 26 -7 20 -6 32 6 50 18 28 28 30 49 8 19 -18 20 -36 5 -51 -8 -8 -3 -10 18
-9 17 2 35 6 42 11 7 4 17 3 23 -3 13 -13 60 6 51 21 -3 6 -1 7 6 3 6 -4 36
16 72 51 39 37 68 57 80 55 10 -2 19 2 19 7 0 12 -8 13 -110 16 -36 1 -130 9
-210 18 -220 24 -270 27 -270 17 0 -5 10 -11 23 -13 12 -2 2 -5 -23 -5 -31 -1
-41 1 -30 8 12 7 11 10 -5 16 -11 4 -23 11 -26 16 -3 5 -8 6 -10 3z"/>
<path d="M8086 5302 c-47 -29 -72 -37 -120 -40 -53 -3 -66 0 -99 22 l-37 25
-26 -39 c-15 -22 -31 -37 -36 -34 -5 4 -9 -2 -7 -12 2 -22 -27 -94 -39 -94 -4
0 -12 -10 -17 -22 -6 -13 -16 -22 -23 -20 -7 1 -12 -6 -12 -16 0 -10 -27 -40
-60 -68 -33 -27 -62 -57 -66 -66 -3 -9 -14 -20 -25 -23 -30 -10 -71 -58 -57
-66 14 -9 86 19 112 43 11 10 29 18 40 18 14 0 27 12 37 33 14 28 20 32 50 29
32 -2 33 -2 15 13 -15 11 -17 18 -8 27 9 9 16 7 32 -7 20 -18 20 -18 20 6 0
14 -5 30 -12 37 -6 6 -8 15 -4 19 4 4 11 1 15 -6 7 -11 9 -11 13 0 3 10 6 10
12 1 4 -7 2 -12 -3 -12 -6 0 -11 -15 -11 -34 0 -18 -6 -39 -14 -46 -8 -6 -16
-24 -18 -38 -2 -17 -9 -27 -18 -26 -9 1 -21 -5 -29 -13 -10 -12 -9 -13 12 -8
31 8 44 -10 17 -25 -13 -7 -20 -21 -20 -39 0 -16 -7 -34 -15 -41 -8 -7 -15
-18 -15 -24 0 -6 5 -4 10 4 22 33 8 -10 -20 -66 -19 -35 -33 -82 -37 -116 -3
-32 -9 -58 -12 -58 -4 0 -15 -13 -24 -30 -18 -29 -18 -30 3 -30 11 0 38 11 60
25 22 14 40 21 40 15 0 -6 -7 -13 -15 -16 -18 -7 -20 -24 -2 -24 15 0 93 81
130 136 30 45 36 104 12 124 -18 15 -19 55 -4 115 9 35 19 50 48 67 20 12 38
26 39 30 2 4 10 8 17 8 23 0 83 79 126 169 23 47 60 116 81 153 54 94 53 95
-36 40z"/>
<path d="M11730 5137 c-1 -1 -2 -24 -4 -52 -2 -27 -7 -88 -11 -135 -6 -67 -4
-99 10 -150 10 -36 17 -75 16 -87 0 -13 5 -24 12 -25 6 0 17 -2 22 -2 22 -3
36 -18 27 -29 -11 -13 2 -57 16 -57 5 0 12 -18 15 -41 3 -23 14 -48 27 -59 14
-12 17 -20 10 -25 -7 -4 -9 -16 -7 -27 3 -11 0 -21 -9 -25 -21 -8 -17 -31 16
-90 17 -29 30 -57 30 -63 0 -5 7 -18 15 -27 8 -10 21 -27 29 -38 13 -18 14
-14 15 40 1 95 4 109 25 113 10 2 22 -1 26 -8 5 -8 10 -9 14 -2 14 23 -30 47
-77 42 -10 -1 -25 4 -33 11 -13 10 -17 10 -23 0 -13 -20 -21 50 -9 73 9 17 11
17 26 2 15 -15 15 -18 2 -26 -14 -9 -7 -14 13 -11 4 1 10 -6 13 -14 4 -8 12
-15 20 -15 19 0 18 29 -1 36 -8 4 -15 15 -15 25 0 11 -7 19 -17 19 -15 1 -14
4 6 20 27 23 73 27 65 6 -3 -7 2 -16 11 -20 12 -4 19 0 22 14 3 11 9 20 13 20
35 0 5 113 -31 118 -26 4 -49 -20 -43 -46 6 -24 -11 -46 -30 -39 -9 4 -16 16
-16 28 0 15 -5 19 -15 15 -8 -3 -15 -1 -15 5 0 7 -12 8 -30 4 -35 -8 -40 1 -7
15 12 6 30 15 39 22 24 17 36 1 12 -17 -12 -9 -14 -14 -6 -15 17 0 43 25 35
34 -4 3 -1 6 5 6 16 0 15 31 -2 53 -14 19 -33 7 -21 -13 4 -6 -5 -10 -19 -10
-22 0 -26 5 -26 29 0 16 -5 31 -11 33 -7 2 -10 35 -10 88 3 145 7 164 38 139
15 -12 16 -12 10 4 -4 11 -2 17 8 17 23 0 28 20 11 39 -15 17 -21 17 -54 5
-43 -15 -112 -18 -112 -5 0 5 10 7 23 4 16 -3 18 -2 9 5 -11 7 -8 11 10 17 22
7 22 7 -7 14 -22 5 -30 12 -29 28 0 12 -5 24 -13 27 -7 3 -13 4 -13 3z"/>
<path d="M6372 4780 c-18 -11 -43 -20 -56 -20 -12 0 -30 -8 -40 -18 -9 -11
-34 -24 -56 -31 -21 -6 -53 -25 -70 -42 -24 -24 -36 -30 -56 -25 -15 4 -23 3
-20 -3 4 -5 -3 -7 -16 -3 -17 4 -20 2 -15 -11 4 -11 1 -17 -8 -17 -16 0 -56
-20 -66 -32 -3 -5 -17 -9 -31 -10 -18 -2 -24 -7 -20 -17 3 -9 1 -12 -6 -7 -16
9 -64 -24 -58 -40 3 -8 -8 -17 -30 -24 -18 -6 -34 -15 -34 -18 1 -19 19 -32
36 -27 10 4 6 -1 -11 -11 -16 -9 -37 -25 -46 -36 -21 -23 -29 -23 -29 2 0 11
-5 20 -11 20 -6 0 -8 -7 -5 -16 15 -39 18 -64 7 -64 -6 0 -11 7 -11 15 0 20
-16 19 -24 -1 -3 -8 -10 -13 -14 -10 -12 7 -38 -26 -46 -57 -4 -18 -2 -27 6
-27 6 0 1 -11 -11 -24 -16 -16 -23 -37 -23 -63 0 -21 -3 -33 -5 -26 -2 7 -11
9 -19 6 -8 -3 -14 1 -14 11 0 20 -17 21 -22 1 -2 -9 -8 -11 -15 -7 -19 12 -29
128 -13 147 7 8 8 15 4 15 -13 0 -64 -88 -64 -110 0 -10 -6 -20 -12 -23 -7 -2
-3 -2 10 0 30 5 29 -19 -4 -52 -14 -14 -22 -30 -18 -37 5 -7 3 -8 -6 -3 -10 6
-12 4 -7 -8 7 -19 -3 -23 -19 -7 -10 10 -23 -11 -57 -90 -8 -19 -23 -53 -32
-75 -10 -22 -17 -50 -16 -63 0 -13 -3 -20 -9 -17 -10 6 -70 -113 -70 -139 0
-7 -7 -17 -16 -20 -12 -4 -15 -14 -10 -34 3 -15 3 -21 0 -14 -4 8 -14 -3 -26
-27 -11 -23 -25 -41 -32 -40 -6 0 -38 54 -71 120 -74 149 -80 154 -128 134
-21 -8 -37 -18 -37 -21 0 -17 42 -182 50 -196 15 -27 12 -58 -5 -58 -8 0 -15
4 -15 9 0 6 -11 22 -25 37 -13 14 -23 30 -20 34 3 4 -14 20 -37 35 -47 31 -60
41 -91 70 -12 11 -38 31 -59 45 -20 14 -51 39 -70 55 -33 30 -72 58 -118 84
-55 31 -115 61 -123 61 -4 0 -26 8 -50 18 -64 28 -109 44 -142 50 -16 2 -32 8
-35 12 -6 7 -194 43 -225 42 -199 -6 -374 -27 -430 -52 -22 -10 -78 -36 -125
-57 -47 -22 -105 -46 -130 -53 -72 -22 -130 -51 -130 -66 0 -9 -12 -14 -34
-14 -19 0 -46 -4 -59 -9 -22 -9 -53 -15 -132 -26 -28 -4 -95 -34 -95 -43 0 -8
-48 -32 -65 -32 -7 0 -20 -9 -30 -20 -10 -11 -24 -20 -32 -20 -7 0 -13 -5 -13
-11 0 -5 -4 -7 -10 -4 -5 3 -10 2 -10 -3 0 -5 -18 -14 -40 -21 -22 -6 -40 -17
-40 -23 0 -5 -9 -8 -19 -5 -11 3 -22 -1 -25 -9 -5 -13 -82 -57 -102 -58 -7 -1
-23 -12 -36 -26 -38 -38 -89 -80 -99 -80 -5 0 -9 -4 -9 -10 0 -5 -7 -10 -15
-10 -9 0 -32 -16 -52 -35 -34 -33 -37 -34 -55 -18 -18 16 -20 15 -48 -13 -51
-51 -48 -59 100 -216 149 -158 511 -517 522 -518 4 0 10 17 13 38 9 56 43 161
68 212 37 75 131 162 213 197 147 64 367 51 469 -27 104 -79 178 -190 194
-292 19 -116 -17 -302 -82 -428 -19 -36 -47 -90 -62 -120 -16 -30 -36 -66 -46
-80 -9 -14 -19 -36 -20 -50 -3 -21 0 -25 21 -22 13 1 27 6 30 10 9 13 123 31
155 25 48 -10 97 -54 90 -80 -4 -17 -1 -23 10 -23 13 0 15 -7 11 -32 -4 -30
-4 -31 9 -14 16 21 45 141 45 184 0 94 93 419 144 506 37 63 103 123 170 156
69 33 180 54 241 45 51 -8 160 -42 199 -62 33 -17 126 -101 126 -114 0 -5 14
-28 30 -51 49 -70 70 -141 70 -238 0 -172 -59 -298 -239 -515 -50 -60 -91
-112 -91 -115 0 -17 152 -50 230 -50 85 0 389 -14 553 -25 81 -6 87 -5 87 13
0 16 9 20 53 25 67 7 128 28 178 62 38 27 52 55 27 55 -7 0 -35 -7 -62 -15
-69 -21 -145 -19 -213 6 -64 24 -143 67 -143 78 0 4 -16 15 -35 24 -19 9 -35
21 -35 27 0 5 -5 10 -10 10 -6 0 -22 12 -35 26 -13 14 -29 23 -34 19 -6 -3
-11 1 -11 9 0 9 -9 21 -20 28 -11 7 -20 16 -20 20 0 11 -40 50 -40 41 -1 -5
-7 3 -15 17 -8 14 -15 21 -15 15 -2 -28 -29 62 -35 117 -7 69 11 162 44 221
10 18 21 47 24 66 7 32 87 201 109 228 7 9 16 10 29 2 13 -6 19 -6 19 0 0 6 7
8 15 4 15 -5 105 23 105 33 0 3 -24 67 -54 142 -29 75 -59 155 -66 177 -7 21
-24 64 -38 95 -13 30 -29 66 -34 80 -10 25 -10 24 -33 -20 -29 -54 -31 -79 -7
-96 16 -12 16 -13 -2 -20 -12 -5 -21 -3 -24 4 -2 7 -7 12 -11 12 -9 0 -61
-103 -61 -120 0 -5 -6 -19 -12 -30 -9 -15 -10 -23 -2 -28 12 -7 34 -46 34 -58
0 -13 -42 30 -56 57 -14 28 -4 52 120 283 14 27 26 54 26 60 0 8 16 11 43 11
62 -3 69 -4 62 -15 -3 -5 1 -10 9 -10 18 0 21 -17 4 -22 -7 -3 3 -40 30 -109
112 -283 142 -361 142 -373 0 -24 25 -45 63 -52 l38 -6 -20 33 c-11 19 -61
144 -112 279 -50 135 -95 247 -100 250 -4 3 -10 17 -14 31 -5 21 -2 27 14 32
13 3 22 -1 26 -12 37 -97 166 -438 195 -515 l10 -28 40 36 c33 30 48 36 84 36
73 0 102 -28 173 -170 35 -69 68 -141 74 -160 6 -19 15 -98 21 -175 11 -163
10 -138 8 -420 -2 -208 -1 -224 21 -290 l24 -70 125 -12 c198 -18 195 -19 198
18 2 28 0 31 -21 25 -20 -5 -25 0 -36 29 -7 19 -24 49 -38 66 -26 31 -63 96
-63 112 0 5 10 18 23 28 l22 20 -32 -6 c-27 -5 -32 -4 -27 8 3 8 0 18 -6 22
-9 6 -9 9 0 15 16 10 5 41 -12 35 -9 -4 -19 20 -32 77 -11 46 -28 106 -38 133
-21 55 -35 220 -24 277 6 31 13 39 56 57 27 11 51 21 54 21 3 0 17 -21 30 -47
14 -27 25 -41 26 -32 0 8 -7 24 -15 35 -8 10 -15 27 -15 36 0 9 -7 21 -15 26
-9 4 -19 32 -25 63 -5 29 -16 74 -25 99 -20 57 -27 157 -15 238 12 84 23 98
55 66 21 -21 34 -24 92 -24 l69 0 14 47 c7 26 24 58 37 71 13 12 23 28 23 34
0 6 11 8 24 6 23 -5 23 -4 19 56 -6 71 21 151 78 231 59 83 67 99 62 128 -5
25 -3 27 28 27 46 0 95 -15 117 -36 44 -44 52 -67 52 -159 0 -108 11 -127 47
-85 26 32 84 53 119 44 17 -4 23 0 28 21 10 39 87 109 137 124 46 14 109 40
168 69 34 17 44 29 55 65 5 15 9 16 35 5 16 -7 45 -32 64 -55 63 -76 56 -153
-22 -238 -32 -35 -46 -65 -29 -65 6 0 40 16 75 35 36 20 69 33 74 30 5 -4 16
-19 24 -36 16 -31 39 -38 52 -16 11 18 84 49 125 52 18 2 86 4 151 4 97 1 117
4 117 16 0 20 24 19 41 -1 19 -24 18 -113 -2 -161 -10 -24 -22 -43 -26 -43
-23 0 -73 -115 -73 -168 0 -32 1 -33 34 -27 33 7 34 6 52 -47 11 -32 18 -83
18 -130 l1 -77 30 -8 c41 -9 68 -5 121 19 25 11 52 17 59 14 8 -3 16 0 18 7 3
9 8 8 20 -2 12 -9 17 -10 17 -2 0 19 68 6 90 -16 10 -12 25 -23 32 -25 10 -4
10 -8 -1 -22 -11 -13 -16 -14 -22 -4 -6 9 -11 10 -19 2 -7 -7 -3 -17 15 -34
19 -18 28 -21 37 -12 9 9 9 12 -1 12 -7 0 -9 5 -6 10 7 12 26 14 23 3 -1 -5 3
-18 10 -30 14 -25 4 -31 -16 -11 -9 9 -12 7 -12 -12 0 -21 -1 -22 -17 -8 -17
15 -21 13 -51 -28 -30 -40 -33 -61 -4 -32 9 9 12 9 12 -1 0 -10 -52 -93 -70
-111 -25 -24 -62 -84 -54 -87 17 -6 -9 -123 -27 -123 -5 0 -9 -9 -9 -20 0 -11
-4 -28 -9 -38 -14 -26 -25 -55 -26 -72 0 -8 -6 -14 -13 -12 -17 3 -15 -6 8
-30 l19 -21 53 21 c29 11 52 25 50 31 -1 7 3 11 10 10 7 -1 24 -1 38 0 l24 1
-22 16 c-18 13 -26 13 -38 3 -8 -6 -17 -9 -20 -6 -3 3 9 13 26 22 25 13 34 14
40 5 4 -7 13 -9 20 -5 9 6 9 9 -1 16 -9 6 1 9 28 9 23 0 44 -4 47 -9 7 -10
-20 -24 -48 -25 -11 -1 -21 -7 -24 -14 -3 -9 3 -11 22 -6 28 7 35 -6 12 -25
-8 -7 -17 -23 -20 -36 -4 -14 -11 -25 -16 -25 -16 0 -12 -56 5 -70 17 -14 20
-50 5 -50 -5 0 -10 -8 -10 -19 0 -21 -73 -101 -92 -101 -7 0 5 -16 26 -35 45
-40 45 -40 106 -20 118 40 129 46 164 95 27 38 45 52 78 61 24 7 52 18 63 25
27 17 126 34 195 34 33 0 64 6 76 15 12 8 25 11 29 7 5 -4 5 -1 1 6 -4 7 2 26
15 43 21 30 21 34 10 167 -17 212 -42 595 -38 598 2 2 19 -7 38 -20 19 -13 50
-28 69 -35 29 -9 41 -22 62 -65 15 -29 48 -80 74 -112 l47 -58 -16 -62 c-10
-34 -17 -82 -17 -106 0 -48 -9 -65 -83 -151 -27 -32 -48 -59 -46 -62 2 -2 24
14 49 36 24 21 48 39 52 39 4 0 4 7 1 17 -4 11 -3 14 5 9 7 -4 12 -1 12 9 0
10 5 13 13 9 6 -4 9 -3 4 1 -8 10 21 45 38 45 6 0 19 16 28 35 9 19 22 35 28
35 17 0 38 32 39 58 0 12 8 25 18 29 9 3 28 16 42 29 14 13 44 42 68 64 24 22
45 40 48 40 3 0 11 6 17 13 11 12 20 26 74 127 44 81 72 98 196 111 96 11 117
20 117 49 0 25 -26 43 -58 42 -117 -6 -163 -12 -202 -25 -25 -9 -67 -18 -95
-21 -27 -2 -59 -8 -70 -12 -14 -6 -10 3 16 37 36 44 54 95 38 105 -5 3 -9 1
-9 -5 0 -6 -7 -8 -16 -4 -9 3 -11 8 -6 12 6 3 12 17 15 31 2 14 2 19 0 13 -5
-14 -23 -18 -23 -5 1 10 30 47 30 37 0 -5 6 0 14 11 14 18 15 18 21 1 7 -16 9
-16 27 5 25 28 48 80 48 109 0 18 -2 19 -15 9 -15 -13 -14 -14 -30 35 -6 21
31 20 43 -1 13 -23 25 -1 25 45 0 45 -41 119 -55 99 -7 -9 -8 -8 -4 5 6 19
-22 77 -37 77 -4 0 -6 -4 -2 -9 3 -5 1 -12 -5 -16 -5 -3 -10 -2 -10 3 0 5 -8
18 -17 30 -10 11 -31 37 -48 58 -16 20 -36 43 -42 50 -16 15 -17 40 -3 49 6 3
10 -3 10 -14 0 -12 4 -21 9 -21 15 0 -22 120 -52 170 -15 25 -30 53 -33 63 -4
9 -11 17 -16 17 -12 0 -44 31 -40 39 1 3 -2 6 -7 6 -5 0 -13 3 -17 8 -4 4 -2
7 4 7 12 0 -32 88 -52 105 -7 6 -11 15 -9 20 2 6 -6 21 -17 33 -11 11 -20 26
-20 32 0 5 -5 9 -12 8 -7 -2 -13 4 -13 12 -2 24 -16 50 -25 45 -5 -3 -21 7
-35 21 -19 19 -23 30 -16 37 8 8 4 19 -15 38 -25 26 -25 28 -13 88 12 57 12
62 -7 80 -12 10 -35 26 -52 35 -19 10 -35 28 -42 50 -6 19 -17 37 -25 40 -8 3
-15 12 -15 21 0 8 -7 15 -16 15 -8 0 -12 5 -9 10 3 6 -1 10 -11 10 -13 0 -14
3 -5 14 9 11 6 16 -16 24 -15 6 -55 23 -88 37 -136 58 -279 77 -322 43 -7 -6
-23 -3 -43 7 -17 9 -64 19 -103 21 -40 3 -91 10 -115 16 -33 8 -49 8 -67 -2
-19 -10 -31 -11 -50 -2 -36 16 -118 25 -161 18 l-37 -7 39 -40 c37 -38 38 -41
38 -112 -1 -94 -33 -169 -104 -243 -88 -91 -177 -108 -630 -121 -140 -3 -273
-7 -295 -7 -33 0 -52 9 -103 48 -35 27 -66 55 -69 62 -3 8 -10 14 -17 14 -14
0 -38 37 -26 42 5 2 2 14 -6 28 l-15 25 5 -24 c3 -17 2 -21 -6 -13 -5 5 -7 20
-3 33 7 20 8 20 17 5 5 -9 13 -14 19 -11 14 9 11 42 -6 59 -8 8 -15 19 -15 25
0 6 -11 44 -25 83 -25 71 -48 108 -69 108 -6 0 -24 18 -40 40 -35 47 -71 52
-124 20z m-2250 -855 c145 -37 170 -45 218 -67 136 -61 170 -87 170 -134 0
-30 -3 -34 -35 -40 -20 -3 -48 -1 -63 4 -106 43 -352 86 -336 60 3 -4 54 -39
114 -79 61 -39 110 -75 110 -79 0 -4 20 -30 43 -56 72 -81 85 -126 47 -164
-34 -34 -61 -25 -124 40 -107 110 -286 224 -386 245 -50 10 -70 32 -70 75 0
34 -3 38 -30 42 -17 3 -90 -6 -163 -20 -149 -28 -209 -31 -232 -12 -23 19 -19
68 10 94 31 29 170 83 250 97 33 6 80 15 105 19 78 15 271 2 372 -25z m-805
-397 c49 -14 92 -48 93 -74 0 -6 7 -17 15 -24 8 -7 15 -23 15 -36 0 -22 -4
-24 -45 -24 -38 0 -45 3 -45 19 0 25 -28 34 -77 25 -48 -8 -73 -21 -73 -37 0
-7 -17 -13 -40 -14 -22 -2 -40 1 -40 6 0 8 -66 26 -82 23 -4 -1 -10 14 -14 34
-7 39 15 74 47 74 29 0 129 33 129 43 0 11 45 5 117 -15z m1287 -265 c3 7 8 2
12 -11 5 -18 9 -20 15 -10 6 9 9 7 9 -9 0 -13 5 -24 10 -24 20 -3 26 -5 67
-29 24 -14 43 -31 43 -37 0 -7 5 -13 10 -13 18 0 11 -50 -7 -56 -10 -3 -27
-10 -38 -15 -62 -29 -87 -29 -137 -2 -26 14 -49 31 -49 37 -1 12 -5 28 -8 36
-1 3 -3 27 -5 53 -3 39 0 52 17 67 14 14 25 17 38 10 12 -7 19 -6 23 3z m466
-1382 c20 -39 -7 -51 -111 -51 -79 0 -89 2 -103 22 -9 12 -16 35 -16 51 0 23
7 31 43 46 23 10 54 21 70 25 16 4 27 13 27 23 0 16 64 -67 90 -116z"/>
<path d="M15000 4271 c0 -5 7 -11 15 -15 8 -3 23 -22 33 -43 9 -21 21 -41 27
-45 17 -12 -3 -20 -23 -9 -17 9 -22 7 -28 -11 -4 -14 -2 -24 5 -26 6 -2 18
-10 25 -18 16 -16 36 -19 36 -5 0 5 9 11 20 14 11 3 20 1 20 -4 0 -12 37 -11
45 1 4 6 1 18 -6 26 -10 12 -10 17 0 27 10 9 14 8 22 -5 6 -10 14 -18 20 -18
5 0 26 -11 47 -23 20 -13 52 -27 70 -30 30 -6 32 -5 32 23 0 20 -5 30 -15 30
-9 0 -18 6 -21 14 -3 8 -13 12 -22 9 -10 -2 -28 5 -41 16 -17 15 -28 18 -46
11 -19 -7 -26 -4 -39 16 -17 25 -42 32 -48 13 -4 -13 -34 1 -81 39 -30 23 -47
28 -47 13z"/>
<path d="M15158 4073 c-2 -10 -1 -29 3 -43 4 -14 7 -39 8 -56 1 -21 9 -37 24
-47 12 -8 33 -26 47 -38 13 -13 27 -23 31 -22 3 1 19 -20 35 -47 45 -76 54
-73 54 20 l0 78 -34 12 c-24 8 -33 16 -29 26 3 8 -1 14 -10 14 -20 0 -67 56
-67 80 0 18 -27 40 -48 40 -5 0 -12 -8 -14 -17z"/>
<path d="M12430 4015 c-8 -10 -27 -14 -54 -12 -31 1 -41 -2 -41 -13 0 -8 -4
-21 -8 -27 -6 -9 3 -12 37 -9 52 4 57 1 79 -41 9 -18 23 -45 31 -60 21 -39 38
-208 25 -237 -13 -28 -68 -49 -105 -40 -19 5 -25 4 -20 -5 4 -6 11 -9 15 -7 4
3 12 1 19 -3 15 -9 -28 -123 -49 -130 -8 -2 -10 2 -6 13 4 10 3 15 -3 11 -6
-3 -10 -27 -10 -53 0 -30 -8 -59 -21 -81 l-20 -34 20 6 c35 9 44 -16 38 -104
-6 -75 -20 -109 -44 -109 -39 0 -83 47 -83 87 0 27 -21 0 -46 -59 -15 -36 -29
-54 -42 -56 -27 -4 -45 29 -38 71 3 18 9 57 12 87 l7 55 -26 -25 c-14 -14 -32
-31 -40 -37 -16 -13 -14 -69 4 -105 16 -31 9 -60 -23 -90 -19 -17 -28 -32 -21
-36 13 -9 25 -72 14 -72 -5 0 -16 -3 -25 -6 -13 -5 -15 -1 -10 25 6 27 4 30
-10 25 -25 -10 -63 14 -69 43 -6 32 21 173 39 200 21 33 18 41 -27 63 -29 15
-50 19 -72 14 -46 -9 -88 -33 -110 -60 -26 -34 -57 -30 -89 10 -25 31 -31 34
-65 29 -30 -4 -42 -1 -57 16 -11 12 -29 21 -41 21 -34 0 -59 34 -52 70 9 44 0
61 -29 54 -14 -4 -24 -2 -24 5 0 19 -44 34 -95 32 -52 -2 -75 -14 -75 -38 0
-12 8 -13 41 -8 34 6 44 3 66 -16 38 -37 54 -85 56 -179 2 -69 -1 -90 -15
-103 -27 -27 -46 -20 -103 36 -52 50 -54 54 -57 112 l-3 60 -60 -3 c-59 -2
-61 -1 -80 30 -15 25 -21 58 -25 133 l-5 99 -33 7 c-18 4 -42 4 -53 2 -19 -5
-20 -11 -13 -84 8 -91 2 -103 -58 -120 -45 -12 -45 -8 -5 -103 14 -33 23 -65
20 -72 -8 -20 -67 -54 -95 -54 -32 0 -64 36 -72 82 -9 49 4 71 59 104 l45 26
-29 24 c-24 20 -33 23 -56 14 -14 -5 -40 -10 -57 -10 l-30 0 6 -77 c3 -43 8
-98 10 -123 3 -25 7 -125 10 -224 4 -116 10 -183 18 -193 21 -25 79 -43 177
-54 53 -5 104 -12 114 -15 23 -7 57 23 57 50 0 12 -7 32 -16 45 -23 33 -48
205 -33 232 l11 21 25 -24 c14 -12 31 -35 39 -50 8 -16 20 -28 26 -28 6 0 20
-7 29 -16 14 -13 16 -21 8 -36 -6 -11 -11 -52 -12 -90 -1 -88 12 -101 114
-118 75 -13 122 -4 133 27 4 8 13 13 21 9 20 -7 19 4 -2 19 -13 10 -15 16 -6
27 7 8 12 23 12 33 -1 29 11 116 16 125 2 4 14 6 27 5 20 -1 23 -7 24 -49 1
-25 -3 -49 -8 -52 -5 -3 -6 -14 -3 -25 4 -11 2 -19 -4 -19 -6 0 -11 -5 -11
-11 0 -5 5 -7 10 -4 16 10 12 -21 -5 -35 -20 -16 -19 -26 5 -50 16 -16 32 -19
98 -18 43 0 88 -3 101 -7 31 -9 91 37 91 71 0 13 5 24 11 24 6 0 9 9 6 20 -6
25 13 41 41 33 24 -6 27 -15 12 -43 -7 -13 -7 -21 0 -25 8 -5 7 -11 -1 -21
-21 -25 -3 -60 39 -72 48 -14 119 3 136 33 6 11 15 23 20 26 5 4 6 19 2 33 -6
23 -3 26 19 26 21 0 25 -4 21 -18 -10 -31 21 -91 50 -98 34 -9 143 3 160 17
22 18 42 65 90 213 44 134 72 216 115 334 23 65 24 115 3 147 -15 22 -14 28 2
70 13 35 14 49 6 57 -7 7 -12 21 -12 31 0 16 5 18 27 14 24 -4 36 3 80 49 29
30 53 63 53 74 0 11 10 45 21 76 18 48 19 60 8 80 -8 17 -21 24 -41 24 -15 0
-28 -4 -28 -10 0 -5 -4 -10 -10 -10 -5 0 -10 9 -10 19 0 11 -4 23 -10 26 -5 3
-10 13 -10 21 0 11 11 14 47 12 38 -2 48 0 51 14 2 12 -6 19 -32 23 -19 4 -44
16 -55 26 -23 21 -29 45 -8 33 8 -5 8 -2 -2 9 -7 9 -24 17 -37 17 -13 0 -24 5
-24 10 0 15 -36 12 -50 -5z"/>
<path d="M12240 4000 c0 -5 -11 -10 -24 -10 -28 0 -41 -14 -29 -32 4 -7 9 -31
10 -53 2 -22 9 -44 16 -50 20 -15 39 -76 27 -89 -6 -8 -3 -21 8 -37 18 -28 42
-28 42 0 0 22 47 121 58 121 4 0 13 10 21 21 11 18 11 23 -1 30 -11 8 -11 10
0 18 11 6 10 10 -3 15 -9 3 -24 6 -33 6 -9 0 -27 16 -40 35 -21 33 -52 48 -52
25z"/>
<path d="M12778 3864 c-6 -9 9 -149 17 -172 4 -10 16 -12 46 -7 47 8 79 -13
79 -52 0 -12 3 -23 6 -23 9 0 34 28 34 38 0 13 47 32 64 26 8 -3 17 2 20 13 3
10 20 34 37 52 17 19 26 37 21 40 -5 3 -21 24 -36 45 -24 36 -33 33 -27 -6 1
-8 -39 -5 -144 10 -64 9 -96 20 -106 35 -4 5 -9 5 -11 1z"/>
<path d="M15013 3699 c-31 -20 -45 -49 -23 -49 6 0 10 3 10 8 0 4 10 12 23 18
20 9 29 4 79 -46 37 -38 54 -61 48 -70 -4 -7 -13 -9 -19 -6 -6 4 -11 1 -11 -7
0 -16 -21 -27 -50 -27 -9 0 -23 -6 -29 -14 -9 -11 -2 -22 35 -54 37 -33 44
-45 39 -63 -5 -14 -4 -19 4 -15 8 5 8 0 1 -19 -14 -37 -13 -40 9 -21 23 21 41
14 41 -17 0 -28 9 -41 38 -56 17 -9 27 -9 37 -1 10 9 13 4 12 -22 -2 -33 -2
-33 51 -36 l52 -3 0 190 0 191 -34 0 c-19 0 -41 3 -50 6 -13 5 -16 -1 -16 -31
0 -21 -4 -34 -10 -30 -5 3 -10 15 -10 25 0 13 -12 25 -34 34 -19 8 -61 42 -93
75 -32 34 -60 61 -63 61 -3 0 -20 -10 -37 -21z"/>
<path d="M13281 3672 c-1 -13 3 -21 8 -18 5 3 11 0 14 -7 2 -6 35 -23 71 -37
62 -23 67 -27 61 -50 -4 -21 -3 -23 7 -10 26 31 98 5 98 -35 0 -31 -29 -34
-50 -5 -10 13 -26 20 -48 20 -26 0 -33 3 -28 15 4 11 -2 15 -20 15 -14 0 -45
14 -70 31 -40 27 -45 28 -50 12 -3 -10 -12 -31 -19 -48 -7 -16 -15 -53 -19
-81 -6 -46 -4 -52 21 -76 17 -15 51 -31 83 -38 30 -7 63 -16 73 -21 10 -6 23
-7 29 -3 6 4 8 3 5 -3 -7 -11 14 -21 101 -49 29 -9 55 -20 58 -25 8 -13 76
-11 72 1 -4 12 -97 55 -143 65 -16 4 -24 10 -18 12 9 3 11 17 7 42 -5 30 -3
39 11 45 11 4 15 12 11 24 -3 9 7 2 22 -15 26 -31 52 -43 52 -25 0 4 -14 20
-30 36 -23 22 -29 36 -27 67 1 43 -1 48 -34 54 -12 3 -27 12 -32 21 -6 11 -17
14 -33 10 -16 -4 -24 -2 -24 7 0 16 -99 67 -129 67 -10 0 -22 6 -24 13 -3 6
-6 2 -6 -11z"/>
<path d="M13953 3598 c-5 -7 -10 -24 -11 -37 -1 -30 -11 -39 -21 -22 -5 7 -14
10 -20 7 -16 -11 -13 -46 4 -46 8 0 15 -4 15 -10 0 -5 -7 -7 -15 -4 -19 8 -20
-12 -1 -23 8 -4 17 -20 21 -34 5 -21 2 -27 -20 -37 -14 -7 -35 -12 -45 -12
-27 0 -25 -15 5 -42 13 -13 27 -38 31 -56 6 -29 4 -32 -19 -32 -14 0 -38 5
-52 12 -23 10 -29 8 -56 -20 -29 -29 -29 -31 -10 -41 11 -6 46 -17 79 -25 59
-13 62 -13 96 10 40 27 47 29 40 11 -3 -8 3 -20 12 -28 14 -11 18 -11 30 6 8
10 17 15 21 12 3 -4 3 -7 0 -7 -13 0 32 -38 49 -42 9 -1 18 -11 20 -21 3 -25
84 -97 116 -104 27 -5 37 -13 80 -65 15 -16 50 -36 96 -51 75 -25 102 -48 106
-90 2 -18 -3 -22 -26 -24 -23 -2 -28 2 -28 21 0 18 -8 27 -31 35 -18 6 -40 11
-51 11 -10 0 -24 11 -30 25 -16 35 -58 35 -58 0 0 -25 35 -54 42 -34 2 5 11 7
21 3 16 -6 16 -7 1 -19 -12 -8 -14 -14 -6 -19 7 -4 17 -4 22 -1 6 3 10 1 10
-4 0 -6 -11 -11 -24 -11 -14 0 -28 -4 -31 -10 -3 -5 -22 -10 -41 -10 -19 0
-34 -4 -34 -10 0 -6 -34 -10 -82 -10 -57 0 -78 -3 -68 -10 11 -7 -4 -10 -48
-10 -48 0 -64 4 -69 16 -4 12 -15 15 -42 11 -20 -4 -63 1 -96 9 -33 8 -73 16
-90 18 -72 8 -126 25 -155 49 -17 15 -46 29 -65 33 -19 3 -35 9 -35 13 0 4 -8
7 -17 8 -10 1 -43 8 -73 16 -30 9 -73 17 -95 19 -36 3 -40 1 -48 -27 -5 -16
-27 -72 -47 -124 -21 -52 -36 -100 -33 -107 2 -7 16 -11 31 -9 15 2 30 4 34 4
4 1 25 39 47 85 36 75 61 112 61 89 0 -4 -18 -61 -40 -126 -25 -74 -40 -135
-40 -165 1 -46 1 -46 15 -22 8 14 14 34 15 44 0 11 14 43 30 73 17 29 30 63
30 75 0 12 3 18 6 15 4 -4 15 9 25 28 11 19 28 52 39 72 12 24 20 31 20 19 0
-10 -6 -30 -14 -44 -27 -50 -66 -144 -66 -160 0 -23 -133 -332 -143 -332 -5 0
-11 9 -14 19 -5 19 -6 18 -26 -2 l-20 -20 29 -24 c16 -13 52 -30 79 -38 47
-15 51 -15 66 4 16 19 18 19 120 -15 152 -51 275 -80 439 -104 191 -28 183
-26 213 -51 33 -25 34 -46 4 -90 -12 -19 -47 -88 -76 -154 -77 -171 -136 -286
-166 -318 -29 -32 -85 -58 -135 -62 -38 -4 -100 -12 -140 -20 -14 -2 -47 -7
-75 -11 -27 -3 -63 -10 -80 -15 -16 -5 -70 -18 -119 -30 -139 -33 -293 -90
-368 -136 -80 -49 -127 -117 -135 -198 -7 -69 6 -86 97 -128 85 -39 152 -43
365 -23 405 38 606 43 800 22 84 -10 100 -14 97 -28 -4 -23 15 -32 73 -33 27
-1 77 -7 110 -14 32 -7 82 -10 110 -7 27 3 69 6 93 6 23 0 42 4 42 9 0 16 -60
30 -171 40 -110 11 -139 17 -139 32 0 11 31 18 110 23 36 2 79 6 95 9 17 2 66
8 110 12 44 4 116 13 160 21 71 13 259 31 503 50 l82 7 0 107 0 107 -82 30
c-129 48 -350 114 -430 127 -67 12 -108 80 -213 356 -37 96 -71 179 -76 184
-5 6 -9 18 -9 28 0 9 -7 21 -17 26 -9 6 -14 16 -10 25 3 9 2 17 -3 19 -19 6 3
48 35 68 18 11 80 28 141 39 190 33 419 110 636 213 l28 13 0 192 0 193 -67
-34 c-168 -85 -314 -138 -525 -190 -132 -32 -212 -44 -405 -61 -99 -9 -343 11
-493 41 -136 27 -333 89 -350 109 -8 9 -4 29 15 71 37 84 37 84 95 69 27 -7
51 -10 54 -8 3 3 12 0 20 -6 8 -7 25 -12 38 -11 44 4 59 0 52 -12 -5 -8 2 -9
24 -5 17 4 34 3 36 -2 9 -14 110 -29 321 -50 110 -11 209 -20 220 -20 90 0
437 23 505 35 129 21 324 72 335 87 6 7 18 11 29 9 10 -2 23 1 29 7 6 6 19 11
29 11 10 0 18 6 18 13 0 13 -67 14 -99 2 -9 -4 -71 -12 -138 -19 -91 -9 -126
-9 -137 0 -21 15 -20 24 1 24 13 0 14 3 5 12 -19 19 -14 28 13 28 14 0 25 5
25 10 0 6 7 10 15 10 8 0 15 5 15 10 0 6 -4 10 -10 10 -5 0 -10 5 -10 10 0 6
8 10 18 8 11 -2 18 4 20 20 4 26 17 29 31 5 6 -10 11 -13 11 -7 0 5 -5 15 -11
21 -8 8 -6 15 10 25 12 7 21 23 21 38 0 22 -4 25 -37 25 -30 0 -38 4 -41 20
-3 11 -9 23 -14 26 -14 9 13 47 58 81 24 18 31 28 23 34 -7 4 -15 2 -17 -4 -7
-21 -42 -14 -42 8 0 13 -7 20 -20 20 -11 0 -23 7 -26 15 -9 21 -51 19 -90 -6
-32 -19 -36 -19 -96 -5 -35 8 -92 17 -128 20 -42 3 -68 10 -76 20 -6 9 -16 16
-21 16 -6 0 -16 6 -22 14 -12 14 -77 49 -96 51 -24 3 -43 18 -39 30 3 7 -3 16
-13 19 -10 4 -19 2 -21 -3 -5 -14 -32 -14 -32 -1 0 6 -4 10 -10 10 -5 0 -10
-7 -10 -15 0 -8 -7 -15 -15 -15 -8 0 -15 -5 -15 -12 0 -6 -6 -4 -13 7 -10 13
-21 16 -40 11 -24 -6 -27 -3 -27 18 0 16 -7 27 -20 31 -11 3 -20 14 -20 24 0
26 -29 49 -40 32 -6 -10 -12 -9 -28 7 -11 11 -18 22 -16 25 3 2 -8 7 -24 10
-16 3 -43 20 -60 36 -32 32 -63 40 -79 19z"/>
<path d="M12855 3374 c-9 -9 -33 -20 -53 -25 -30 -7 -41 -4 -59 12 l-21 21
-11 -20 c-6 -12 -11 -30 -11 -42 0 -11 -7 -37 -15 -56 -14 -34 -17 -36 -49
-30 -52 10 -65 -1 -103 -83 -19 -42 -48 -104 -64 -137 -16 -34 -29 -66 -29
-72 0 -5 -8 -20 -18 -33 -10 -13 -24 -43 -32 -66 -7 -24 -16 -43 -19 -43 -9 0
-32 -56 -38 -91 -7 -49 9 -59 99 -59 96 0 112 12 152 117 26 67 26 73 12 101
-15 29 -14 32 26 93 22 35 51 82 63 104 18 31 30 41 53 43 28 3 30 0 37 -38 4
-23 4 -78 1 -123 -6 -75 -6 -80 9 -63 8 11 15 26 15 33 0 21 38 53 55 47 23
-9 37 -79 34 -167 -4 -92 13 -116 31 -45 27 106 54 188 82 245 30 63 68 190
68 230 0 15 -10 28 -28 37 -16 8 -42 31 -59 50 -17 20 -39 36 -50 36 -10 0
-29 9 -41 20 -19 18 -22 18 -37 4z"/>
<path d="M10422 3127 l-22 -24 20 -99 c39 -189 52 -223 83 -211 11 4 13 17 7
59 -4 29 -13 100 -20 158 -6 58 -14 113 -16 123 -7 24 -26 21 -52 -6z"/>
<path d="M15336 3005 c-3 -8 -17 -15 -31 -15 -15 0 -25 -6 -25 -14 0 -14 -29
-26 -65 -26 -12 0 -36 -13 -55 -30 l-35 -29 41 -1 c26 0 47 -6 55 -17 12 -15
12 -16 -7 -11 -12 3 -28 2 -35 -3 -12 -7 -12 -10 0 -21 11 -10 14 -10 18 0 3
6 22 15 44 18 22 4 42 10 45 15 3 5 -1 6 -9 3 -8 -3 -18 -1 -22 5 -4 7 9 12
37 13 37 1 38 2 10 5 -38 5 -33 23 6 23 15 0 34 5 42 10 13 9 13 11 0 21 -11
8 -12 12 -2 16 14 5 17 53 3 53 -5 0 -11 -7 -15 -15z"/>
<path d="M7030 2871 c-58 -11 -138 -26 -178 -35 -41 -9 -126 -21 -190 -26
-227 -19 -305 -33 -407 -71 -64 -24 -83 -56 -87 -147 -2 -48 2 -67 18 -89 11
-15 30 -48 43 -73 53 -102 109 -148 204 -165 110 -21 219 93 272 282 31 111
80 123 133 31 55 -95 117 -163 173 -192 102 -50 243 -31 336 48 36 30 61 94
70 179 3 32 10 60 14 63 15 9 10 74 -6 80 -8 3 -26 26 -40 50 -14 24 -40 51
-57 60 -48 25 -175 27 -298 5z m289 -37 c3 -3 0 -8 -5 -13 -12 -11 -462 -77
-470 -68 -18 18 9 36 63 42 32 4 128 17 213 30 137 20 184 22 199 9z m38 -59
c3 -9 4 -18 2 -20 -8 -8 -446 -75 -490 -75 -19 0 -29 5 -29 15 0 8 1 15 3 16
4 1 482 76 495 78 7 0 15 -6 19 -14z m-697 -30 c16 -20 17 -19 -180 -50 -241
-38 -260 -40 -260 -26 0 6 6 14 14 17 11 4 356 66 407 73 4 1 12 -6 19 -14z
m714 -40 c3 -9 0 -18 -7 -20 -50 -16 -419 -75 -473 -75 -23 0 -34 5 -34 15 0
17 9 19 150 40 58 8 155 24 215 34 140 24 142 24 149 6z m-694 -35 c0 -11 -2
-20 -5 -20 -3 0 -98 -13 -212 -30 -230 -33 -267 -36 -261 -18 4 12 131 38 353
72 124 19 125 19 125 -4z m698 -37 c-2 -14 -24 -22 -93 -35 -188 -35 -377 -60
-387 -50 -19 19 2 29 89 41 48 8 149 24 223 36 169 29 172 29 168 8z m-701
-28 c3 -9 4 -18 2 -20 -3 -2 -65 -13 -139 -25 -74 -11 -162 -25 -196 -30 -85
-14 -124 -13 -124 3 0 10 31 19 98 31 79 13 313 51 345 55 4 1 10 -6 14 -14z
m693 -40 c0 -8 -10 -17 -22 -20 -64 -15 -291 -54 -350 -60 -58 -6 -68 -5 -68
8 0 10 12 18 33 21 17 3 109 18 202 35 204 35 205 35 205 16z m-706 -40 c-7
-18 -14 -20 -187 -45 -170 -25 -237 -26 -237 -5 0 11 11 15 38 15 21 0 87 9
147 20 195 34 247 38 239 15z"/>
<path d="M2995 2755 c-20 -5 -47 -21 -61 -34 -28 -27 -76 -120 -68 -133 3 -4
22 -5 43 -2 34 5 41 2 70 -27 17 -19 34 -44 37 -57 15 -58 -46 -114 -103 -95
-15 5 -36 7 -47 5 -29 -6 -16 -76 21 -105 52 -41 73 -69 73 -101 0 -38 13 -60
31 -54 8 3 21 0 29 -7 22 -18 139 -58 154 -52 21 8 85 211 107 341 15 88 6
193 -19 235 -28 46 -77 79 -136 90 -60 11 -83 10 -131 -4z"/>
<path d="M9908 2575 c-4 -8 -16 -52 -23 -85 0 -3 -9 -21 -20 -40 -10 -19 -20
-39 -22 -45 -1 -5 -6 -27 -12 -48 -5 -21 -17 -47 -26 -57 -10 -11 -17 -31 -17
-45 0 -14 -6 -25 -12 -25 -6 0 -12 -12 -13 -26 0 -15 -5 -29 -10 -33 -5 -3
-12 -13 -16 -21 -12 -27 -31 -54 -59 -83 -16 -16 -28 -35 -28 -42 0 -8 -9 -17
-20 -20 -11 -3 -20 -12 -20 -20 0 -7 -7 -15 -15 -19 -8 -3 -15 -12 -15 -20 0
-7 -6 -16 -14 -19 -8 -3 -22 -21 -30 -39 -9 -19 -31 -49 -48 -68 -18 -19 -33
-37 -34 -40 0 -3 -6 -17 -12 -32 -19 -45 -29 -72 -31 -83 -1 -5 -11 -20 -22
-31 -14 -15 -17 -24 -9 -29 7 -4 63 45 141 124 71 72 132 131 134 131 3 0 1
-10 -6 -21 -9 -17 -8 -20 2 -13 21 12 81 5 109 -14 14 -9 28 -16 32 -14 4 1 5
-5 2 -13 -4 -8 -2 -15 3 -15 12 0 43 -54 43 -74 0 -9 9 -26 20 -38 11 -12 20
-17 20 -10 0 6 -5 14 -11 17 -5 4 -8 12 -6 18 6 20 -40 177 -58 197 -14 15
-31 20 -72 20 l-54 0 19 28 c50 72 90 147 128 237 14 33 31 74 39 90 67 147
107 326 71 312 -8 -3 -16 -1 -19 6 -2 6 -6 7 -9 2z"/>
<path d="M4159 2494 c-28 -5 -63 -33 -97 -78 -24 -32 -21 -46 11 -46 29 -1 50
-18 71 -58 23 -45 8 -95 -35 -112 -26 -11 -35 -10 -79 13 -36 19 -51 22 -58
14 -5 -7 -12 -78 -15 -160 -5 -144 -5 -147 16 -159 12 -6 24 -14 27 -17 12
-15 123 -71 166 -85 26 -8 72 35 112 104 14 25 29 47 33 50 14 11 86 138 107
190 43 103 39 213 -9 274 -43 55 -156 86 -250 70z"/>
<path d="M2268 2414 c-3 -2 -88 -6 -189 -9 -419 -9 -811 -27 -909 -41 -58 -8
-163 -21 -235 -30 -71 -8 -140 -20 -152 -26 -11 -6 -25 -8 -30 -5 -6 4 -23 2
-39 -3 l-29 -8 27 -1 c15 -1 37 -6 50 -11 l23 -11 -3 -307 c-3 -305 2 -361 32
-362 20 -1 43 -24 49 -52 7 -25 3 -29 -28 -42 -22 -10 -37 -24 -41 -40 -9 -37
5 -98 27 -119 10 -10 19 -21 19 -25 0 -9 -59 -32 -83 -32 -21 0 -37 30 -34 65
2 32 12 28 -153 55 -41 7 -79 15 -85 18 -40 24 -77 0 -101 -65 -15 -42 -18
-312 -5 -515 7 -117 7 -118 41 -154 19 -20 46 -42 60 -49 32 -16 182 -55 215
-55 16 0 39 -14 63 -39 31 -32 52 -43 103 -55 35 -8 107 -25 159 -37 127 -30
264 -29 490 5 96 14 191 28 210 31 19 3 100 14 180 26 80 11 269 38 420 60
151 22 321 46 377 54 166 23 185 26 255 41 37 9 70 19 73 24 3 4 6 59 8 122 3
94 7 122 25 157 21 39 22 55 22 260 0 163 -3 221 -12 229 -8 6 -34 6 -68 1
-77 -11 -180 -11 -180 0 0 5 14 20 31 32 48 34 75 107 83 224 4 55 9 115 13
133 5 31 6 32 19 13 18 -25 64 -25 119 0 22 10 50 19 63 19 13 0 36 7 52 15
21 11 27 20 23 35 -3 12 -11 19 -19 16 -7 -3 -17 1 -23 8 -7 8 -29 10 -73 5
-35 -3 -82 -5 -105 -5 -41 2 -43 1 -44 -29 -2 -47 -17 81 -20 166 -2 76 -19
139 -38 139 -5 0 -22 -5 -38 -11 -15 -6 -75 -15 -133 -20 -292 -25 -381 -38
-379 -52 4 -37 -2 -47 -30 -47 -21 0 -37 9 -55 33 -15 17 -36 43 -47 56 -39
47 -16 53 256 71 197 14 229 20 233 45 2 11 16 32 30 48 l26 27 -25 -1 c-13
-1 -73 2 -134 6 -60 4 -149 7 -196 6 -47 -1 -97 3 -111 8 -14 5 -28 8 -30 5z
m-308 -184 c98 -12 147 -26 153 -43 8 -26 -6 -47 -37 -51 -68 -11 -278 -26
-286 -21 -5 3 -30 1 -57 -5 -26 -5 -82 -12 -123 -14 -41 -2 -76 -5 -77 -5 0
-1 1 -9 4 -19 2 -10 -3 -25 -12 -32 -24 -20 -95 6 -112 41 -10 20 -29 32 -83
49 -81 26 -100 48 -69 76 19 17 41 19 188 22 91 2 171 5 176 7 22 8 256 4 335
-5z m-713 -982 c37 -13 43 -33 13 -43 -12 -4 -20 -15 -20 -29 0 -12 -6 -30
-13 -40 -29 -40 -127 26 -127 86 0 11 10 20 28 24 15 3 32 7 37 9 21 7 50 5
82 -7z"/>
<path d="M10734 2365 c-10 -25 20 -295 36 -325 13 -24 13 -197 0 -205 -5 -3
-10 -17 -10 -31 0 -25 -18 -64 -35 -76 -6 -5 -5 -8 2 -8 25 0 42 -55 39 -124
-2 -37 1 -69 6 -72 4 -3 5 -16 2 -29 -3 -12 -1 -26 6 -30 7 -4 9 -18 5 -35 -5
-21 0 -37 16 -59 18 -24 20 -33 10 -45 -9 -11 -9 -16 0 -21 7 -5 9 -21 6 -40
-3 -18 0 -38 6 -44 8 -8 8 -11 -2 -11 -7 0 -9 -5 -6 -10 4 -6 20 1 41 16 19
15 34 22 34 17 0 -6 14 -27 30 -48 38 -48 40 -95 4 -146 -14 -20 -25 -47 -26
-60 -3 -97 -45 -249 -69 -249 -16 0 -10 -28 10 -42 10 -7 21 -23 25 -35 8 -26
14 -28 37 -10 23 18 36 47 44 97 4 25 9 54 11 65 3 22 27 124 44 195 7 25 14
56 16 70 9 50 27 125 34 145 12 29 22 74 26 118 2 21 8 47 14 56 5 10 7 21 3
24 -3 3 0 21 7 39 7 18 16 54 21 81 5 26 13 68 19 95 5 26 14 72 19 102 6 30
15 75 21 100 15 66 48 244 54 295 5 40 27 141 36 163 9 19 6 24 -18 33 -15 6
-49 9 -77 6 -28 -3 -62 1 -80 8 -25 11 -283 45 -338 45 -10 0 -20 -7 -23 -15z
m316 -370 c7 -8 9 -22 6 -31 -4 -9 -1 -23 6 -31 10 -12 7 -13 -16 -7 -24 6
-27 4 -24 -12 2 -11 10 -18 16 -16 9 1 10 -6 6 -24 -4 -17 -2 -29 7 -35 11 -7
9 -10 -8 -15 -13 -4 -23 -11 -23 -16 0 -5 5 -6 12 -2 7 5 9 1 6 -12 -3 -11 1
-26 9 -33 12 -11 12 -16 -7 -36 -13 -14 -20 -33 -18 -52 1 -17 -3 -37 -9 -45
-18 -23 -23 -57 -7 -51 19 7 18 -21 -2 -38 -10 -8 -14 -23 -11 -43 3 -17 -1
-45 -8 -61 -6 -17 -9 -39 -5 -50 15 -41 -41 -63 -72 -27 -16 17 -14 82 3 82 4
0 11 21 15 46 5 37 10 45 24 41 15 -4 17 1 12 39 -4 38 -2 44 14 44 17 1 17 2
3 13 -21 16 -30 79 -16 117 6 16 14 30 17 30 3 0 5 33 4 73 -2 92 3 115 27
122 14 5 18 12 14 26 -7 23 7 25 25 4z"/>
<path d="M11515 2300 c-11 -5 -32 -9 -47 -9 -32 -1 -39 -26 -10 -35 17 -6 18
-18 14 -149 -9 -275 -8 -320 6 -324 7 -3 12 4 12 16 0 12 9 30 20 41 12 12 20
33 20 54 0 18 7 39 15 46 8 7 15 29 15 49 0 21 7 46 15 57 8 10 15 33 15 50 0
16 7 39 15 50 8 10 15 38 15 62 0 23 4 42 9 42 15 0 22 32 10 46 -13 16 -92
18 -124 4z"/>
<path d="M11753 2300 c-20 -8 -51 -50 -37 -50 3 0 1 -6 -5 -14 -6 -7 -14 -42
-17 -77 -3 -35 -9 -73 -14 -84 -5 -11 -11 -38 -14 -60 -3 -22 -8 -55 -12 -72
-5 -29 -4 -33 14 -33 14 0 25 12 35 38 8 20 31 72 51 115 20 42 36 81 36 86 0
5 14 38 30 73 28 58 29 64 13 76 -19 14 -48 15 -80 2z"/>
<path d="M12581 2271 c-22 -23 -47 -41 -56 -41 -9 0 -18 -12 -21 -30 -4 -16
-10 -30 -15 -30 -5 0 -9 -7 -9 -15 0 -8 -4 -23 -9 -33 -18 -33 -43 -133 -37
-147 3 -10 19 -15 45 -15 30 0 44 -6 55 -22 9 -12 16 -18 16 -13 0 5 6 1 13
-9 7 -10 19 -15 29 -11 14 6 45 62 52 95 2 8 6 24 10 35 20 52 26 74 36 129
12 70 13 123 3 129 -5 3 -22 8 -40 12 -29 6 -37 2 -72 -34z"/>
<path d="M11910 2291 c-22 -6 -26 -14 -31 -61 -5 -58 -37 -163 -78 -262 -5
-13 -15 -41 -22 -63 -13 -42 -17 -54 -104 -295 -31 -85 -58 -161 -61 -168 -2
-8 -13 -16 -24 -19 -11 -3 -20 -12 -20 -20 0 -28 -32 -64 -51 -58 -23 8 -24
-1 -3 -23 13 -13 15 -29 11 -85 -3 -38 -11 -75 -17 -82 -7 -8 -13 -27 -16 -42
-2 -15 -8 -57 -13 -93 -10 -79 -49 -232 -62 -245 -14 -14 -11 -52 6 -59 8 -3
15 -1 15 5 0 12 52 126 101 221 16 31 38 83 50 115 12 32 32 82 45 111 13 29
42 101 65 160 22 59 52 135 65 170 13 34 24 67 24 73 0 13 66 191 92 248 11
24 37 63 58 85 26 27 41 54 46 80 10 64 10 287 -1 296 -17 13 -49 18 -75 11z"/>
<path d="M6987 2264 c-16 -9 -26 -18 -23 -21 3 -4 17 0 31 7 38 20 41 5 10
-40 -34 -49 -88 -98 -124 -111 -112 -44 -203 -29 -285 46 -37 34 -46 49 -41
65 5 15 2 20 -13 20 -20 0 -32 -18 -32 -46 0 -8 5 -14 11 -14 5 0 7 5 4 10 -3
6 -3 10 2 10 20 0 104 -113 124 -165 28 -75 55 -104 108 -116 37 -8 50 -6 87
12 56 27 81 58 99 128 25 93 30 104 71 158 l39 52 22 -21 c26 -25 30 -13 7 20
-18 26 -56 28 -97 6z m-87 -254 c18 -11 7 -34 -32 -63 -53 -39 -159 -30 -174
15 -8 28 12 39 61 35 22 -2 51 3 65 10 29 15 59 16 80 3z"/>
<path d="M12293 2273 c-7 -2 -13 -11 -13 -18 0 -20 -21 -30 -31 -14 -6 10 -9
6 -9 -13 0 -16 -9 -37 -19 -47 -11 -11 -15 -23 -10 -28 8 -8 -13 -101 -46
-203 -8 -25 -13 -58 -11 -75 3 -16 5 -33 5 -37 1 -4 7 -5 15 -2 8 3 17 21 21
40 3 20 15 51 26 70 10 19 19 45 19 58 0 13 6 29 14 35 14 11 24 44 45 144 5
21 16 46 25 56 29 32 12 52 -31 34z"/>
<path d="M3752 1898 c-16 -16 -15 -35 1 -41 7 -4 6 -6 -5 -6 -11 -1 -15 -7
-11 -20 3 -12 -3 -26 -16 -37 -23 -20 -28 -44 -8 -44 6 0 19 -5 27 -10 13 -8
11 -12 -9 -26 -15 -11 -19 -19 -12 -23 6 -4 12 -27 14 -50 l2 -43 95 6 c52 3
86 2 76 -2 -11 -5 62 -9 162 -11 129 -2 182 1 182 9 0 6 5 8 12 4 6 -4 8 -3 4
4 -3 6 -2 13 4 17 13 8 13 55 0 55 -15 0 -22 2 -58 17 -18 7 -37 11 -42 8 -6
-4 -10 -2 -10 2 0 4 -29 7 -65 6 -51 -2 -67 1 -72 13 -3 8 -12 13 -19 10 -7
-3 -16 4 -19 15 -4 12 -15 19 -31 19 -14 0 -32 6 -40 14 -19 19 -53 10 -47
-14 7 -26 -16 -35 -32 -14 -9 11 -14 14 -15 7 0 -7 -5 -13 -11 -13 -6 0 -8 7
-5 17 5 11 -2 24 -19 37 -24 20 -25 24 -17 64 10 43 5 51 -16 30z"/>
<path d="M8659 1766 c-50 -67 -70 -105 -94 -181 -14 -47 -32 -90 -39 -98 -7
-7 -18 -22 -25 -35 -9 -17 -21 -22 -49 -22 l-37 0 31 -19 c18 -11 35 -24 38
-30 10 -16 26 -13 26 4 0 8 5 15 10 15 6 0 10 -9 10 -19 0 -15 -8 -21 -32 -23
-79 -9 122 -41 237 -38 44 1 175 2 292 1 117 0 219 2 227 5 8 3 12 12 9 20 -7
18 -80 19 -98 0 -17 -17 -62 -10 -70 11 -6 18 11 43 30 43 7 0 16 19 20 45 4
32 13 50 30 61 32 21 39 58 18 94 -9 17 -20 30 -24 30 -4 0 -20 -21 -35 -47
-15 -27 -53 -82 -85 -124 -63 -82 -100 -107 -146 -93 -16 4 -32 8 -38 9 -56 6
-71 63 -32 127 12 20 35 58 51 84 31 51 49 111 36 119 -8 5 -39 -46 -103 -165
-54 -102 -99 -169 -123 -185 -46 -30 -125 -11 -150 36 -13 27 -13 35 10 102
14 41 48 122 76 181 51 108 59 133 29 92z"/>
<path d="M3440 1760 c0 -5 -13 -10 -29 -10 -16 0 -36 -6 -43 -13 -16 -15 -70
-41 -80 -39 -5 1 -8 -7 -8 -18 0 -11 -6 -20 -14 -20 -8 0 -16 -6 -19 -13 -7
-18 118 -16 135 1 16 16 31 15 25 -1 -3 -7 1 -21 8 -30 11 -15 26 -17 84 -15
l72 3 -27 33 c-15 17 -35 32 -45 32 -23 0 -24 13 -4 30 8 7 15 17 15 23 0 6
-3 7 -7 4 -3 -4 -16 5 -29 18 -25 27 -34 31 -34 15z"/>
<path d="M11963 1673 c-8 -21 -18 -55 -21 -75 -2 -21 -9 -38 -13 -38 -5 0 -9
-7 -9 -16 0 -8 4 -13 9 -10 9 6 5 -70 -4 -84 -2 -3 0 -22 4 -42 7 -28 4 -43
-9 -65 -16 -26 -59 -139 -64 -167 -1 -6 -12 -31 -24 -55 -37 -75 -21 -84 17
-10 12 23 28 48 37 56 8 8 11 19 8 25 -4 6 -3 13 2 17 5 3 20 29 34 56 14 28
33 62 43 77 9 15 21 48 26 75 8 39 6 56 -9 90 -17 40 -18 43 -2 53 14 8 14 11
4 18 -10 7 -12 26 -9 71 3 33 3 61 1 61 -3 0 -12 -17 -21 -37z"/>
<path d="M11302 1667 c2 -36 -8 -60 -23 -52 -5 4 -9 -5 -9 -19 0 -14 -5 -28
-11 -31 -6 -4 -8 -14 -5 -22 3 -8 1 -24 -6 -36 -11 -22 -21 -63 -37 -160 -4
-27 -12 -52 -17 -55 -6 -4 -10 -52 -10 -108 1 -72 -3 -106 -13 -117 -7 -10
-11 -17 -7 -17 3 0 1 -12 -5 -27 -6 -16 -15 -57 -19 -93 -13 -95 -20 -133 -30
-155 -18 -43 -31 -120 -31 -194 0 -42 -4 -84 -9 -91 -21 -33 -151 4 -158 45
-7 35 -22 46 -39 30 -25 -25 -57 -27 -112 -5 -77 30 -91 14 -46 -53 22 -32 25
-42 16 -75 -11 -42 -10 -102 1 -102 4 0 7 -11 6 -25 -2 -16 -7 -24 -15 -21 -7
3 -13 2 -13 -3 0 -5 8 -11 18 -14 9 -3 55 -19 102 -37 47 -17 110 -35 140 -40
30 -5 91 -17 135 -25 44 -9 178 -20 298 -25 209 -8 221 -8 273 12 52 20 71 38
39 38 -8 0 -15 8 -16 18 0 9 -2 25 -4 35 -2 9 0 17 5 17 12 0 27 73 22 109 -3
19 -14 39 -29 49 -80 54 -94 96 -44 131 43 31 70 95 70 161 -1 37 6 71 20 101
17 36 81 224 81 238 0 2 -9 1 -19 -2 -17 -4 -18 -2 -10 20 5 14 7 28 4 33 -6
10 15 122 27 136 5 7 9 28 10 48 1 20 5 36 10 36 4 0 8 8 8 17 0 11 -8 6 -25
-17 -14 -19 -25 -40 -25 -47 0 -12 -19 -52 -30 -63 -3 -3 -10 -18 -16 -35 -23
-61 -77 -191 -90 -220 -22 -48 -84 -214 -108 -290 -13 -38 -28 -83 -35 -100
-19 -44 -27 -100 -13 -91 6 3 13 20 17 36 4 16 13 34 22 38 8 5 18 24 22 42 3
19 12 35 20 38 10 3 11 0 2 -16 -7 -14 -8 -23 -1 -27 15 -9 12 -23 -6 -27 -10
-2 -18 -15 -20 -33 -2 -16 -8 -31 -14 -33 -5 -2 -10 -10 -10 -18 0 -9 5 -12
11 -8 17 10 3 -30 -39 -115 -41 -81 -99 -146 -138 -154 -32 -6 -58 19 -56 53
0 3 3 41 5 85 l5 80 -59 27 c-33 15 -62 35 -66 44 -4 10 4 36 20 64 14 25 28
59 31 76 2 16 7 49 11 74 4 25 15 75 26 111 10 36 19 78 19 94 0 25 36 226 60
335 5 25 10 83 11 129 2 73 0 86 -18 100 -15 12 -22 33 -28 81 -9 89 -9 91 0
123 6 23 4 27 -14 27 -18 0 -21 -5 -19 -33z"/>
<path d="M12444 1598 c-4 -13 -15 -29 -25 -36 -11 -7 -19 -20 -19 -28 0 -15
-39 -76 -52 -82 -5 -2 -8 -10 -8 -18 0 -8 -7 -17 -15 -20 -8 -4 -15 -13 -15
-22 0 -8 -8 -24 -17 -35 -17 -18 -16 -20 14 -47 31 -28 98 -54 114 -45 9 6 26
108 34 210 4 44 10 95 15 113 6 24 5 32 -5 32 -8 0 -17 -10 -21 -22z"/>
<path d="M8060 1568 c-43 -21 -58 -22 -377 -22 -217 -1 -323 -4 -305 -10 30
-10 737 -14 747 -5 7 8 -4 59 -14 59 -3 0 -26 -10 -51 -22z"/>
<path d="M7260 1203 c-13 -3 -53 -34 -87 -69 l-63 -64 -158 0 c-178 0 -334 11
-592 41 -302 35 -471 48 -605 47 l-130 -1 85 -9 c115 -12 116 -12 95 -44 -9
-14 -15 -27 -13 -29 2 -2 21 0 43 5 81 19 214 7 215 -19 0 -3 4 -12 9 -20 8
-12 16 -10 48 11 l38 27 125 -11 c251 -21 1144 -14 1815 14 393 17 1215 17
1380 0 125 -13 276 -34 341 -47 30 -7 33 -5 45 29 17 46 23 39 10 -10 -5 -22
-12 -69 -14 -105 l-5 -65 32 4 c40 5 113 39 119 56 3 7 -9 57 -27 110 l-33 96
-704 4 c-466 2 -810 9 -1019 20 -731 37 -878 42 -950 29z"/>
<path d="M4595 756 c-49 -55 -140 -71 -408 -71 l-219 1 -39 -39 -39 -40 -6
-202 c-4 -145 -2 -205 6 -210 19 -11 248 -5 276 7 22 10 25 16 18 42 -4 17 -8
66 -10 109 -2 69 0 80 21 105 l23 27 9 -30 c13 -47 9 -146 -6 -193 -13 -38
-13 -45 0 -53 29 -20 246 11 299 43 36 21 86 25 453 31 l119 2 65 69 c63 66
65 70 57 105 -5 20 -7 103 -6 185 l4 148 -74 -8 c-91 -11 -372 -12 -453 -1
-59 7 -60 7 -90 -27z"/>
<path d="M12784 756 c-3 -8 -4 -27 -2 -42 4 -32 14 -36 158 -58 68 -10 97 -10
102 -3 4 6 4 15 2 19 -8 12 50 9 141 -7 238 -42 914 -129 1090 -140 55 -3 120
-8 145 -11 56 -7 43 9 -20 24 -70 17 -663 100 -870 122 -41 4 -149 20 -240 34
-521 83 -499 80 -506 62z"/>
<path d="M12254 423 c-9 -32 -22 -61 -28 -65 -14 -10 -36 19 -36 48 0 29 -13
33 -69 18 l-46 -11 -7 -74 c-4 -41 -8 -83 -9 -94 -8 -74 21 -120 76 -118 20 1
42 6 48 12 6 6 28 11 49 11 41 0 87 17 105 40 7 8 12 33 11 55 0 22 3 70 7
107 8 66 7 68 -18 77 -14 6 -31 19 -37 31 -17 32 -28 24 -46 -37z"/>
<path d="M7845 439 c-165 -4 -417 -8 -560 -9 -270 -3 -345 -7 -345 -20 0 -8
120 -17 435 -30 127 -6 401 -19 610 -29 795 -41 1057 -47 1150 -26 23 5 26 4
15 -4 -11 -8 22 -11 119 -11 117 0 132 2 121 15 -39 47 -457 102 -873 114
-155 4 -302 7 -327 7 -25 -1 -180 -4 -345 -7z"/>
<path d="M4978 163 c-9 -2 -21 -18 -28 -36 -7 -18 -16 -41 -21 -52 -5 -11 -13
-32 -19 -47 l-10 -28 97 0 c79 0 98 3 109 18 18 23 17 63 -2 90 -13 20 -89 64
-103 61 -3 -1 -13 -3 -23 -6z"/>
<path d="M5950 119 c-19 -10 -40 -19 -46 -19 -17 0 -44 -46 -44 -75 0 -25 0
-25 90 -25 88 0 90 1 96 25 7 30 -1 82 -17 102 -15 18 -37 16 -79 -8z"/>
</g>
</svg>
