<?xml version="1.0" standalone="no"?>
<!DOCTYPE svg PUBLIC "-//W3C//DTD SVG 20010904//EN"
 "http://www.w3.org/TR/2001/REC-SVG-20010904/DTD/svg10.dtd">
<svg version="1.0" xmlns="http://www.w3.org/2000/svg"
 width="477.000000pt" height="173.000000pt" viewBox="0 0 477.000000 173.000000"
 preserveAspectRatio="xMidYMid meet">
<metadata>
Created by potrace 1.16, written by Peter Selinger 2001-2019
</metadata>
<g transform="translate(0.000000,173.000000) scale(0.100000,-0.100000)"
fill="#000000" stroke="none">
<path d="M542 1588 c-18 -60 -67 -152 -118 -224 -65 -93 -155 -152 -316 -209
-69 -24 -76 -29 -65 -44 23 -33 659 -801 666 -805 4 -3 33 6 64 19 228 92 425
282 492 474 l12 36 -159 197 c-108 135 -222 261 -358 398 -110 110 -201 200
-203 200 -1 0 -8 -19 -15 -42z"/>
<path d="M742 1590 l-23 -29 291 -361 290 -361 -24 -60 c-80 -198 -235 -350
-473 -461 -62 -29 -83 -44 -83 -58 0 -25 6 -25 82 4 96 36 215 99 298 157 88
62 273 238 337 322 l45 59 -34 36 c-19 20 -41 46 -49 56 -13 18 -13 19 8 8 57
-31 147 -1 178 57 35 69 12 116 -76 154 -66 29 -78 43 -55 65 14 14 20 15 49
3 61 -24 62 -24 80 15 23 47 14 56 -56 62 -93 7 -157 -40 -157 -115 0 -43 26
-72 91 -100 48 -21 59 -30 59 -49 0 -40 -45 -42 -101 -3 -26 18 -26 18 -48
-12 l-22 -29 -177 203 c-97 111 -228 262 -291 335 -62 73 -114 132 -115 131 0
0 -11 -13 -24 -29z"/>
<path d="M2268 1293 l-28 -4 2 -195 2 -194 25 0 c40 0 49 11 53 59 l3 45 38
-57 c20 -31 40 -57 43 -57 3 0 19 9 35 21 28 19 31 20 48 5 20 -18 73 -21 101
-6 13 7 21 6 30 -5 18 -21 75 8 64 33 -4 9 -9 55 -12 102 -4 95 -16 116 -67
126 -23 4 -48 -1 -81 -15 -47 -21 -49 -21 -82 -4 l-34 18 -45 -49 -45 -50 4
117 c3 127 7 119 -54 110z"/>
<path d="M1694 1160 c-12 -5 -35 -25 -50 -46 -25 -32 -29 -46 -29 -101 0 -60
2 -67 33 -94 81 -73 192 0 192 126 0 60 -21 100 -61 114 -37 13 -56 13 -85 1z"/>
<path d="M1862 1152 c-18 -12 46 -265 66 -257 7 3 29 5 47 5 32 0 34 2 46 53
l12 52 12 -53 c7 -29 14 -54 16 -56 2 -1 24 -1 49 2 l45 4 33 121 c18 67 33
126 32 130 0 5 -17 7 -37 5 l-37 -3 -16 -72 c-8 -39 -18 -74 -21 -77 -3 -4
-12 28 -19 69 -7 42 -17 78 -22 81 -5 3 -24 3 -42 0 -28 -5 -32 -10 -29 -34 2
-15 -5 -53 -15 -86 l-19 -58 -12 63 c-6 35 -14 76 -17 92 -4 21 -11 27 -32 27
-15 0 -33 -4 -40 -8z"/>
<path d="M20 974 l0 -130 333 -411 c182 -227 335 -412 340 -412 4 -1 7 59 7
132 l-1 132 -330 400 c-182 220 -335 404 -340 410 -5 5 -9 -42 -9 -121z"/>
<path d="M3728 723 l-28 -4 2 -195 2 -194 25 0 c44 0 50 11 53 95 l3 80 30 0
30 0 -1 -92 -2 -91 37 5 c20 3 39 8 43 12 3 3 3 57 0 119 -7 119 -13 132 -60
132 -13 0 -37 -7 -53 -16 l-31 -15 4 85 c3 93 7 88 -54 79z"/>
<path d="M4479 723 l-27 -4 2 -195 c1 -187 2 -194 21 -194 62 1 60 -7 60 206
1 211 5 196 -56 187z"/>
<path d="M1973 670 c-34 -20 -63 -66 -63 -98 0 -32 41 -73 97 -98 60 -27 76
-50 48 -70 -26 -19 -37 -18 -78 10 l-36 25 -26 -32 -25 -32 27 -22 c58 -47
141 -42 192 11 43 45 48 102 12 140 -14 14 -28 26 -33 26 -4 0 -28 9 -53 21
-77 36 -48 87 30 54 21 -8 39 -15 41 -15 2 0 13 18 24 40 l21 40 -26 10 c-43
17 -117 12 -152 -10z"/>
<path d="M3312 674 c-57 -29 -80 -104 -46 -153 9 -12 43 -34 75 -48 48 -21 59
-30 59 -49 0 -40 -45 -42 -101 -3 -26 18 -26 18 -48 -12 -18 -25 -20 -33 -10
-45 36 -43 116 -56 170 -29 61 32 87 116 51 162 -9 12 -42 33 -73 46 -66 29
-78 43 -55 65 14 14 20 15 49 3 61 -24 62 -24 80 15 23 47 14 57 -60 61 -40 3
-68 -1 -91 -13z"/>
<path d="M3043 643 c-17 -3 -23 -11 -23 -33 0 -19 -6 -29 -20 -33 -11 -3 -20
-1 -20 4 0 18 -35 8 -62 -18 l-28 -27 0 27 c0 23 -4 27 -27 27 -16 0 -33 -4
-38 -8 -7 -4 -9 -52 -7 -129 l4 -123 27 0 c48 0 54 11 46 83 -6 59 -5 66 13
76 12 6 29 11 40 11 11 0 22 7 26 15 3 8 15 15 27 15 21 0 22 -3 15 -76 -9
-96 5 -124 62 -124 43 0 62 14 62 47 0 18 -5 22 -22 20 -22 -2 -23 2 -26 66
l-3 67 31 0 c25 0 30 4 30 25 0 21 -5 25 -29 25 -28 0 -29 2 -24 35 6 37 3 39
-54 28z"/>
<path d="M2620 582 c-45 -18 -57 -36 -41 -60 7 -11 16 -11 51 -1 39 12 44 11
56 -6 22 -30 17 -35 -30 -35 -76 0 -121 -70 -80 -128 11 -17 25 -22 58 -22 23
0 47 5 54 12 9 9 15 8 24 -4 12 -15 17 -15 46 -3 28 12 32 17 22 34 -5 11 -10
55 -10 99 0 61 -4 85 -17 101 -24 29 -78 35 -133 13z"/>
<path d="M3563 581 c-67 -42 -93 -152 -53 -218 33 -55 112 -55 154 0 18 25 19
29 4 43 -14 15 -18 14 -43 -2 -27 -18 -28 -18 -46 5 -21 26 -24 62 -8 93 9 16
17 19 44 14 31 -6 36 -4 50 25 19 37 12 48 -36 55 -24 3 -44 -1 -66 -15z"/>
<path d="M4034 590 c-12 -5 -35 -25 -50 -46 -25 -32 -29 -46 -29 -101 0 -60 2
-67 33 -94 81 -73 192 0 192 126 0 60 -21 100 -61 114 -37 13 -56 13 -85 1z"/>
<path d="M4271 583 c-47 -25 -71 -74 -71 -146 0 -51 4 -62 29 -88 62 -62 164
-22 191 75 33 119 -52 210 -149 159z"/>
<path d="M4630 582 c-19 -9 -41 -30 -49 -46 -19 -40 -1 -73 57 -104 23 -13 42
-30 42 -38 0 -19 -20 -17 -50 6 -25 19 -25 19 -47 -2 -31 -29 -29 -44 9 -64
71 -37 158 8 158 81 0 36 -24 62 -80 85 -16 7 -30 16 -30 21 0 12 47 11 55 -1
12 -19 32 -10 48 24 l16 34 -31 11 c-42 15 -57 14 -98 -7z"/>
<path d="M2180 583 c-13 -3 -15 -14 -10 -61 4 -31 5 -87 2 -124 l-5 -68 29 0
c47 0 53 10 56 95 l3 80 30 0 30 0 -2 -92 -3 -92 38 6 c20 3 39 8 42 10 2 2 3
40 1 83 -3 77 -2 79 23 86 13 3 30 3 35 -1 7 -3 11 -44 11 -96 l0 -89 28 6
c15 3 32 7 39 9 8 3 11 36 9 116 -3 95 -6 114 -21 126 -25 18 -70 16 -101 -3
-23 -15 -26 -15 -43 0 -22 20 -69 20 -95 1 -25 -19 -36 -19 -36 0 0 15 -25 18
-60 8z"/>
<path d="M1185 464 c-90 -80 -242 -166 -387 -220 -57 -21 -78 -33 -78 -46 0
-10 2 -18 4 -18 2 0 69 22 149 50 170 58 252 93 359 156 l77 45 -38 35 c-21
19 -40 34 -42 34 -2 -1 -22 -17 -44 -36z"/>
<path d="M1139 315 c-36 -19 -145 -62 -242 -96 -111 -39 -177 -67 -177 -76 0
-7 1 -13 3 -13 13 0 396 134 445 155 64 29 71 35 50 53 -9 7 -32 0 -79 -23z"/>
<path d="M1150 262 c-19 -8 -123 -45 -230 -82 l-195 -68 -3 -51 -3 -51 78 29
c43 16 162 59 266 96 103 38 187 71 187 75 0 3 -15 20 -32 37 -32 30 -34 30
-68 15z"/>
</g>
</svg>
